<svg width="50" height="50" viewBox="0 0 50 50" fill="none" xmlns="http://www.w3.org/2000/svg">
<path d="M22.4993 16.2495C22.0385 16.2495 21.6661 16.6228 21.6661 17.0828V27.4992C21.6661 27.9591 22.0385 28.3325 22.4993 28.3325H47.4986C47.9594 28.3325 48.3319 27.9591 48.3319 27.4992V17.0828C48.3319 16.6228 47.9594 16.2495 47.4986 16.2495C47.0378 16.2495 46.6653 16.6228 46.6653 17.0828V26.6658H34.999V15.8328C34.999 15.3729 34.6265 14.9996 34.1657 14.9996H27.4992C27.0384 14.9996 26.6659 15.3729 26.6659 15.8328V26.6658H23.3327V17.0828C23.3326 16.6228 22.9602 16.2495 22.4993 16.2495ZM28.3325 16.6661H33.3323V20.8327H32.499C32.0382 20.8327 31.6658 21.206 31.6658 21.666C31.6658 22.1259 32.0382 22.4992 32.499 22.4992H33.3323V26.6658H28.3325V16.6661Z" fill="#FFD700"/>
<path d="M20.5136 15.7695C20.6169 15.8119 20.7252 15.8328 20.8327 15.8328C21.0494 15.8328 21.2627 15.7479 21.4218 15.5887L35.0015 2.0099L48.5761 15.5887C48.8153 15.8279 49.1735 15.8995 49.4844 15.7696C49.7952 15.6404 49.9985 15.3363 49.9985 14.9996V2.49993C49.9985 2.03998 49.6261 1.66665 49.1652 1.66665H40.8322C40.3714 1.66665 39.9989 2.03998 39.9989 2.49993C39.9989 2.95987 40.3714 3.3332 40.8322 3.3332H48.332V12.9871L35.5931 0.244133C35.2806 -0.0683574 34.7223 -0.0683574 34.4098 0.244133L21.6661 12.9879V3.3332H25.8326C26.2935 3.3332 26.6659 2.95987 26.6659 2.49993V1.66665H28.3326V2.49993C28.3326 2.95987 28.705 3.3332 29.1658 3.3332C29.6267 3.3332 29.9991 2.95987 29.9991 2.49993V0.833276C29.9991 0.373329 29.6267 0 29.1658 0H25.8326C25.3718 0 24.9994 0.373329 24.9994 0.833276V1.66655H20.8328C20.372 1.66655 19.9995 2.03988 19.9995 2.49983V14.9995C19.9994 15.3362 20.2019 15.6404 20.5136 15.7695Z" fill="#FFD700"/>
<path d="M42.4987 23.3326C42.9596 23.3326 43.332 22.9593 43.332 22.4993V15.8328C43.332 15.3729 42.9596 14.9996 42.4987 14.9996H37.4989C37.0381 14.9996 36.6656 15.3729 36.6656 15.8328V22.4993C36.6656 22.9593 37.0381 23.3326 37.4989 23.3326H42.4987ZM38.3322 16.6661H41.6654V21.666H38.3322V16.6661Z" fill="#FFD700"/>
<path d="M4.16658 44.582C4.16658 43.8928 3.60576 43.332 2.91662 43.332C2.22748 43.332 1.66666 43.8928 1.66666 44.582C1.66666 45.2711 2.22748 45.8319 2.91662 45.8319C3.60576 45.8319 4.16658 45.2711 4.16658 44.582Z" fill="#FFD700"/>
<path d="M49.5519 34.999C48.6327 33.4065 46.5869 32.8615 45.0511 33.7516L35.4597 38.4198C33.9689 39.1656 32.464 39.1656 29.1657 39.1656C25.9417 39.1656 21.0193 38.3514 20.9693 38.3439C20.516 38.2689 20.086 38.5748 20.011 39.0281C19.9352 39.4822 20.2419 39.9122 20.696 39.9872C20.9026 40.0222 25.8025 40.8322 29.1657 40.8322C32.6256 40.8322 34.3623 40.8322 36.1972 39.9148L45.8318 35.2224C46.2168 35 46.6651 34.9408 47.0969 35.0557C47.526 35.1715 47.886 35.4474 48.1077 35.8324C48.331 36.2182 48.3902 36.6673 48.2751 37.0974C48.1601 37.5274 47.8843 37.8865 47.4752 38.1232L36.208 45.1355C36.1847 45.1513 33.7805 46.6654 28.3325 46.6654C23.6085 46.6654 16.3104 42.6439 16.2053 42.5864C16.1294 42.5497 14.3228 41.6656 10.833 41.6656C10.3722 41.6656 9.99971 42.0389 9.99971 42.4989C9.99971 42.9588 10.3722 43.3321 10.833 43.3321C13.8638 43.3321 15.4253 44.0613 15.4286 44.0613V44.0604C15.7437 44.2354 23.1759 48.332 28.3325 48.332C34.349 48.332 37.0172 46.5987 37.1055 46.5396L48.3319 39.5523C49.1026 39.1073 49.6543 38.3881 49.8844 37.529C50.116 36.6681 49.9969 35.7698 49.5519 34.999Z" fill="#FFD700"/>
<path d="M10.833 31.6657H17.4995C18.4719 31.6657 20.1244 32.9057 21.5827 33.9989C23.4109 35.3706 25.1384 36.6655 26.6658 36.6655H31.6657C32.9314 36.6655 33.5598 37.2396 33.5765 37.2547C33.7389 37.4172 33.9523 37.4988 34.1656 37.4988C34.379 37.4988 34.5922 37.4172 34.7547 37.2547C35.0805 36.9288 35.0805 36.4022 34.7547 36.0764C34.6448 35.9664 33.6215 34.9989 31.6657 34.9989H26.6658C25.6934 34.9989 24.0409 33.7589 22.5826 32.6657C20.7544 31.294 19.0269 29.999 17.4995 29.999H10.833C10.3722 29.999 9.99971 30.3724 9.99971 30.8323C9.99971 31.2923 10.3722 31.6657 10.833 31.6657Z" fill="#FFD700"/>
<path d="M5.83313 26.6658H0.833276C0.37245 26.6658 0 27.0391 0 27.4991C0 27.959 0.37245 28.3324 0.833276 28.3324H5.83313C6.29308 28.3324 6.6664 28.7065 6.6664 29.1656V47.4984C6.6664 47.9576 6.29308 48.3317 5.83313 48.3317H0.833276C0.37245 48.3317 0 48.705 0 49.165C0 49.6249 0.37245 49.9982 0.833276 49.9982H5.83313C7.21141 49.9982 8.33305 48.8766 8.33305 47.4983V29.1657C8.33305 27.7875 7.21141 26.6658 5.83313 26.6658Z" fill="#FFD700"/>
</svg>
