<svg width="49" height="49" viewBox="0 0 49 49" fill="none" xmlns="http://www.w3.org/2000/svg">
<path d="M45.2916 24.1658L26.8018 5.68556L25.5624 4.4462C25.28 4.16568 24.8981 4.00824 24.5001 4.00824C24.1021 4.00824 23.7202 4.16568 23.4378 4.4462L3.70859 24.1658C3.41923 24.4541 3.19055 24.7973 3.03604 25.1754C2.88153 25.5534 2.80433 25.9586 2.80898 26.367C2.82812 28.0514 4.23017 29.396 5.91454 29.396H7.94824V44.9813H41.052V29.396H43.1287C43.947 29.396 44.7174 29.0754 45.2964 28.4964C45.5815 28.2122 45.8074 27.8743 45.961 27.5022C46.1146 27.1301 46.1928 26.7313 46.1912 26.3287C46.1912 25.5152 45.8706 24.7448 45.2916 24.1658ZM27.1798 41.5359H21.8204V31.7742H27.1798V41.5359ZM37.6066 25.9507V41.5359H30.2423V30.6258C30.2423 29.5683 29.3857 28.7117 28.3282 28.7117H20.672C19.6144 28.7117 18.7579 29.5683 18.7579 30.6258V41.5359H11.3935V25.9507H6.7998L24.5049 8.25997L25.6102 9.36534L42.2052 25.9507H37.6066Z" fill="#FFD700"/>
</svg>
