<svg width="70" height="47" viewBox="0 0 70 47" fill="none" xmlns="http://www.w3.org/2000/svg">
<path d="M43.5407 28.3019L43.515 45.9726H26.7887L26.7629 28.3019L26.7583 25.1404L24.944 27.7295L19.7187 35.1862L19.7121 35.1957L19.7056 35.2053C19.1895 35.9794 18.2611 36.3112 17.381 36.3112H3.69208C2.12738 36.3112 1.29863 35.1695 1.28346 33.9109C1.27589 33.2823 1.48252 32.6903 1.86801 32.2662C2.23836 31.8588 2.83767 31.5348 3.77375 31.5348H15.639H16.1686L16.4662 31.0967L23.2596 21.0967C24.2018 19.8139 25.1694 18.919 26.2317 18.3393C27.2917 17.7608 28.5034 17.4648 29.981 17.4648H40.1321C41.6235 17.4648 42.8353 17.7391 43.8891 18.3026C44.9445 18.8669 45.9083 19.7568 46.8487 21.0897L53.6752 31.0983L53.9729 31.5348H54.5013H66.4485C67.3929 31.5348 67.9935 31.8598 68.3635 32.2665C68.7487 32.69 68.9553 33.2821 68.949 33.9129C68.9362 35.1874 68.1066 36.3112 66.6119 36.3112H52.923C52.028 36.3112 51.1144 35.9981 50.604 35.2144L50.5947 35.2001L50.585 35.1862L45.3597 27.7295L43.5453 25.1404L43.5407 28.3019ZM41.6905 7.62001C41.6905 11.2858 38.7365 14.24 35.0705 14.24C31.4338 14.24 28.4757 11.3148 28.4504 7.61696C28.4521 3.95257 31.4054 1 35.0705 1C38.7611 1 41.6905 3.9519 41.6905 7.62001Z" stroke="#FFD700" stroke-width="2"/>
<path d="M66.3478 8.84971H69.3V26.5222H64.6131V23.2292V22.5292H63.913H61.3158H60.6158V23.2292V26.5222H55.9289V8.84971H58.8811H59.5811V8.14971V7.46999H65.6478V8.14971V8.84971H66.3478ZM60.6158 21.0072H60.7986H61.3158H63.913H64.4305H64.6131H65.1305H67.5653H68.2653V20.3072V17.8725V17.3714H68.2656L68.2656 16.6713L68.2653 14.2366L68.2652 13.7192H68.2653V13.0192V10.5844V9.88444H67.5653H65.1305H64.6131H64.4305H63.913H62.6308H62.6147H61.3325H60.7986H60.6325H60.0986H57.6639H56.9639V10.5844V13.0192V13.5367V13.7192V14.2367V16.6714V17.1725V17.3714V17.8725V20.3072V21.0072H57.6639H60.0986H60.6158ZM64.4305 17.1725H63.9133V16.6714H64.4305V17.1725Z" stroke="#FFD700" stroke-width="1.4"/>
<path d="M16.5687 18.6614L16.5423 18.6307L16.5126 18.6031L15.3567 17.534L14.1814 16.4467V18.0478V26.5223H11.4453V20.7559V20.0559H10.7453H7.18418H6.48417V20.7559V26.5223H3.69084V17.9753V16.401L2.52193 17.4556L1.19276 18.6548L1.17941 18.6668L1.16669 18.6795C1.12954 18.7167 1.06418 18.7489 0.982501 18.7489L0.982138 18.7489C0.827783 18.749 0.700001 18.6225 0.700001 18.4667C0.700001 18.3748 0.748719 18.2872 0.798399 18.2475L0.81341 18.2355L0.827739 18.2227L8.96799 10.9429L11.087 12.8726L12.2583 13.9392V12.355V11.0611H13.0689V14.3778V14.6861L13.2964 14.8942L17.0075 18.29C17.0332 18.3245 17.0567 18.3795 17.0567 18.4667C17.0567 18.6214 16.9299 18.7492 16.7742 18.7492C16.6871 18.7492 16.6074 18.7065 16.5687 18.6614Z" stroke="#FFD700" stroke-width="1.4"/>
</svg>
